:SAMPLES-PER-SECOND 30
:FULLY-SPECIFIED
:DEGREES
156
root  34.76786576 36.57749206 -14.08618116 10.11554623 -4.061855793 4.214285374
lowerback  -7.889790535 0.1216589957 -1.195169687
upperback  -4.032240391 0.8385490179 -4.759980202
thorax  0.307983011 0.624589026 -4.186860085
lowerneck  -6.948470116 -14.86279964 -9.682160378
upperneck  14.11620045 -20.88624191 13.66279984
head  7.98593998 -9.312430382 3.746829987
lclavicle  0 -4.497500157e-015 -2.743230041e-014
lhumerus  -47.38639832 30.69050217 60.95690155
lradius  0.004135653842 -6.507048965e-006 29.05329895
lwrist  3.192251654e-007 -3.790274832e-007 -30.11440086
lhand  -4.445740744e-031 -37.41350174 -10.77779961
lfingers  90 7.125020027 -90
lthumb  95.07977838 -25.59281199 101.6280799
rclavicle  0 -4.497500157e-015 -2.743230041e-014
rhumerus  20.07339668 -36.96049881 -40.13779449
rradius  -5.16745672e-007 2.214343908e-008 39.10860062
rwrist  0.0003490542294 -0.002273720223 -158.7669983
rhand  -1.774470142e-031 5.743360043 -7.006909847
rfingers  -90 -7.125020027 -90
rthumb  -84.4784032 -9.070244749 -58.48299879
rfemur  -11.357728 14.86017895 12.06316853
rtibia  -0.5524986982 -1.714754343 18.23743057
rfoot  1.554376364 -21.95542145 -35.05312347
rtoes  3.941305921 19.62341667 -101.5934722
lfemur  -2.010575056 -17.00721359 -24.01791191
ltibia  8.533744812 -1.009305596 3.873919249
lfoot  0.231643185 -18.81269646 36.3337822
ltoes  -8.676014735 -18.09001178 -116.1707111
157
root  34.76840642 36.57701147 -14.08965794 10.10085869 -4.022284985 4.212333679
lowerback  -7.878910065 0.1083309501 -1.216140032
upperback  -4.032646656 0.8224480152 -4.75868988
thorax  0.2954399884 0.6171169877 -4.175079823
lowerneck  -6.939169884 -14.86545753 -9.670880318
upperneck  14.09640026 -20.88755798 13.65639973
head  7.976135731 -9.313528061 3.7499547
lclavicle  0 -4.497500157e-015 -2.743230041e-014
lhumerus  -47.41540146 30.67670059 60.93889999
lradius  0.005095753353 -6.507048965e-006 29.05629921
lwrist  3.192251654e-007 -3.790274832e-007 -30.11529922
lhand  -4.445681199e-031 -37.41249847 -10.73740005
lfingers  90 7.125020027 -90
lthumb  95.07027581 -25.55332785 101.6230792
rclavicle  0 -4.497500157e-015 -2.743230041e-014
rhumerus  19.99060059 -36.88990021 -40.00490189
rradius  -5.16745672e-007 2.214343908e-008 39.06679916
rwrist  0.0003490542294 -0.002273720223 -158.8339996
rhand  -1.774318512e-031 5.694469929 -7.18132019
rfingers  -90 -7.125020027 -90
rthumb  -84.58272519 -8.918289172 -58.54512403
rfemur  -11.33706665 14.85748291 12.07126141
rtibia  -0.5518523455 -1.704843283 18.23885536
rfoot  1.544674277 -21.94703674 -35.08917236
rtoes  3.919462887 19.62762533 -101.5284382
lfemur  -2.013201475 -16.96601105 -24.00485802
ltibia  8.533455849 -0.98688519 3.874142408
lfoot  0.2283158749 -18.8593235 36.28239441
ltoes  -8.67846847 -18.08886535 -116.1786136
158
root  34.76945472 36.57675015 -14.09455097 10.0892868 -4.004954338 4.205432892
lowerback  -7.886870384 0.09750780463 -1.250499845
upperback  -4.033267498 0.8099020123 -4.745200157
thorax  0.3061000109 0.6110870242 -4.14233017
lowerneck  -6.924240112 -14.86779118 -9.670450211
upperneck  14.04339981 -20.8876915 13.63449955
head  7.952539921 -9.31446743 3.749142408
lclavicle  0 -4.497500157e-015 -2.743230041e-014
lhumerus  -47.44100189 30.66600037 60.93970108
lradius  0.006109090522 -6.507048965e-006 29.07459831
lwrist  3.192251654e-007 -3.790274832e-007 -30.13619995
lhand  -4.447118361e-031 -37.43669891 -10.75230026
lfingers  90 7.125020027 -90
lthumb  95.08497592 -25.56703654 101.650359
rclavicle  0 -4.497500157e-015 -2.743230041e-014
rhumerus  19.91719818 -36.79199982 -39.86309814
rradius  -5.16745672e-007 2.214343908e-008 39.06610107
rwrist  0.0003490542294 -0.002273720223 -158.9299927
rhand  -1.774173619e-031 5.647349834 -7.300889969
rfingers  -90 -7.125020027 -90
rthumb  -84.65729945 -8.813189589 -58.60078641
rfemur  -11.33582973 14.86036015 12.08119392
rtibia  -0.5515709519 -1.692215919 18.25731087
rfoot  1.528413415 -21.94346809 -35.11667252
rtoes  3.965276767 19.6187699 -101.6648568
lfemur  -2.008339882 -16.97211647 -23.99609756
ltibia  8.53315258 -0.9694135189 3.878222227
lfoot  0.2364738286 -18.89669228 36.31534195
ltoes  -8.630483566 -18.11121102 -116.024161
159
root  34.76955083 36.57673212 -14.09770485 10.0820303 -3.995931149 4.188508034
lowerback  -7.870950222 0.0876762718 -1.262559533
upperback  -4.034230232 0.7971779704 -4.745619774
thorax  0.2935900092 0.6049460173 -4.13711977
lowerneck  -6.906750202 -14.8691988 -9.677809715
upperneck  14.00629997 -20.88698387 13.63379955
head  7.937059879 -9.315258026 3.746654034
lclavicle  0 -4.497500157e-015 -2.743230041e-014
lhumerus  -47.45539856 30.63920021 60.94940186
lradius  0.007166062016 -6.507048965e-006 29.07701302
lwrist  3.192251654e-007 -3.790274832e-007 -30.06430054
lhand  -4.447260948e-031 -37.43909836 -10.81359959
lfingers  90 7.125020027 -90
lthumb  95.0998741 -25.62695715 101.658951
rclavicle  0 -4.497500157e-015 -2.743230041e-014
rhumerus  19.85149956 -36.71569824 -39.7609024
rradius  -5.16745672e-007 2.214343908e-008 39.05541229
rwrist  0.0003490542294 -0.002273720223 -159.0529938
rhand  -1.773965891e-031 5.579090118 -7.313809872
rfingers  -90 -7.125020027 -90
rthumb  -84.68064988 -8.797626782 -58.66831746
rfemur  -11.34557056 14.84379005 12.10233688
rtibia  -0.5520263314 -1.680263996 18.2719326
rfoot  1.529138446 -21.93451881 -35.09803772
rtoes  3.971677195 19.61752419 -101.6839199
lfemur  -2.01751709 -17.01382256 -23.97653008
ltibia  8.53283596 -1.00298512 3.88924551
lfoot  0.2142709345 -18.8042202 36.28344727
ltoes  -8.634978259 -18.10912451 -116.0386206
160
root  34.77150624 36.57683125 -14.10126724 10.08289528 -3.974262476 4.182396412
lowerback  -7.850560188 0.09024648368 -1.266620159
upperback  -4.036049843 0.8017339706 -4.76335001
thorax  0.2808949947 0.6031774879 -4.153210163
lowerneck  -6.883600235 -14.87014771 -9.645480156
upperneck  13.96469975 -20.88577461 13.64529991
head  7.917658806 -9.315907478 3.744242668
lclavicle  0 -4.497500157e-015 -2.743230041e-014
lhumerus  -47.4618988 30.59269905 60.93619919
lradius  0.0082570659 -6.507048965e-006 29.08230209
lwrist  3.192251654e-007 -3.790274832e-007 -30.08789825
lhand  -4.445924607e-031 -37.41659927 -10.87290001
lfingers  90 7.125020027 -90
lthumb  95.10245953 -25.6857984 101.6404976
rclavicle  0 -4.497500157e-015 -2.743230041e-014
rhumerus  19.76280022 -36.72759628 -39.69169998
rradius  -5.16745672e-007 2.214343908e-008 39.0469017
rwrist  0.0003490542294 -0.002273720223 -159.072998
rhand  -1.773706876e-031 5.492770195 -7.206250191
rfingers  -90 -7.125020027 -90
rthumb  -84.64503357 -8.883896529 -58.74381349
rfemur  -11.36174107 14.85337448 12.11021233
rtibia  -0.5538178086 -1.652311444 18.29832649
rfoot  1.524158597 -21.88825035 -35.10414505
rtoes  3.945574259 19.62259141 -101.606182
lfemur  -2.034276485 -16.95241356 -23.96419525
ltibia  8.532506943 -0.9747142792 3.89503479
lfoot  0.2118402123 -18.85853767 36.24128342
ltoes  -8.64839335 -18.10288893 -116.081787
161
root  34.77345564 36.57570486 -14.10569018 10.05980206 -3.950623751 4.18166256
lowerback  -7.860492706 0.08584465086 -1.280318856
upperback  -4.044630051 0.8024160266 -4.7636199
thorax  0.2774159908 0.6032027602 -4.145470142
lowerneck  -6.859109879 -14.87083149 -9.643110275
upperneck  13.94740009 -20.88441086 13.63599968
head  7.906670094 -9.316423416 3.742569923
lclavicle  0 -4.497500157e-015 -2.743230041e-014
lhumerus  -47.48410034 30.61450005 60.89749908
lradius  0.009372501634 -6.507048965e-006 29.06949997
lwrist  3.192251654e-007 -3.790274832e-007 -30.1317997
lhand  -4.448949928e-031 -37.46749878 -10.8416996
lfingers  90 7.125020027 -90
lthumb  95.11952536 -25.65331723 101.6919692
rclavicle  0 -4.497500157e-015 -2.743230041e-014
rhumerus  19.70060158 -36.7336998 -39.63190079
rradius  -5.16745672e-007 2.214343908e-008 39.05920029
rwrist  0.0003490542294 -0.002273720223 -159.0540009
rhand  -1.773071127e-031 5.274819851 -7.382599831
rfingers  -90 -7.125020027 -90
rthumb  -84.78979798 -8.718670628 -58.97044486
rfemur  -11.3592062 14.90310955 12.12683201
rtibia  -0.5670528412 -1.611427307 18.33741379
rfoot  1.507036805 -21.81901932 -35.15226364
rtoes  3.962538615 19.61930219 -101.6567018
lfemur  -2.007733583 -16.98239326 -23.96590042
ltibia  8.532167435 -0.969532907 3.896536112
lfoot  0.2085540295 -18.87737465 36.27044678
ltoes  -8.620005514 -18.11606981 -115.990459
162
root  34.77356378 36.57432316 -14.10910539 10.03287029 -3.925093651 4.170968056
lowerback  -7.865205288 0.08086808026 -1.316810131
upperback  -4.051159859 0.7921569943 -4.751339912
thorax  0.2722347081 0.6042650938 -4.113289833
lowerneck  -6.883289814 -14.87144184 -9.650139809
upperneck  13.96959972 -20.88323402 13.58759975
head  7.91369772 -9.316815376 3.725429773
lclavicle  0 -4.497500157e-015 -2.743230041e-014
lhumerus  -47.47800064 30.60390091 60.91239929
lradius  0.01050276589 -6.507048965e-006 29.0442009
lwrist  3.192251654e-007 -3.790274832e-007 -30.12470055
lhand  -4.452818444e-031 -37.53239822 -10.84309959
lfingers  90 7.125020027 -90
lthumb  95.1505054 -25.65221892 101.7615835
rclavicle  0 -4.497500157e-015 -2.743230041e-014
rhumerus  19.67369652 -36.71889877 -39.57009888
rradius  -5.16745672e-007 2.214343908e-008 39.0802002
rwrist  0.0003490542294 -0.002273720223 -159.0970001
rhand  -1.772708501e-031 5.146309853 -7.215970039
rfingers  -90 -7.125020027 -90
rthumb  -84.73383526 -8.853072359 -59.08255118
rfemur  -11.3073473 14.87877464 12.14488029
rtibia  -0.5570138097 -1.613168478 18.3000145
rfoot  1.518571854 -21.82898903 -35.15927505
rtoes  3.958235528 19.62013791 -101.6438865
lfemur  -1.973166466 -17.01254463 -23.97294426
ltibia  8.531817436 -0.9706052542 3.896049738
lfoot  0.2059871256 -18.88347054 36.28242111
ltoes  -8.631130548 -18.11091076 -116.0262423
